<svg width="433" height="558" xmlns="http://www.w3.org/2000/svg" xmlns:xlink="http://www.w3.org/1999/xlink" overflow="hidden"><defs><linearGradient x1="374.061" y1="232.912" x2="789.156" y2="471.879" gradientUnits="userSpaceOnUse" spreadMethod="reflect" id="fill0"><stop offset="0"/><stop offset="0.44" stop-color="#071546"/><stop offset="0.9633" stop-color="#DCE3FC"/><stop offset="1" stop-color="#DCE3FC"/></linearGradient><linearGradient x1="485.712" y1="297.242" x2="900.806" y2="536.209" gradientUnits="userSpaceOnUse" spreadMethod="reflect" id="fill1"><stop offset="0"/><stop offset="0.75" stop-color="#5CC4AE"/><stop offset="1" stop-color="#5CC4AE"/></linearGradient></defs><g transform="translate(-421 -107)"><path d="M583.248 188.996C562.669 188.996 545.097 193.796 530.532 203.396 515.968 212.996 505.011 226.396 497.663 243.596 490.316 260.796 486.642 280.462 486.642 302.596 486.642 324.729 490.116 344.596 497.063 362.196 504.011 379.796 514.5 393.596 528.529 403.596 542.558 413.596 559.862 418.596 580.442 418.596 601.017 418.596 618.52 413.729 632.951 403.996 647.382 394.262 658.272 380.862 665.62 363.796 672.968 346.729 676.642 327.129 676.642 304.996 676.642 282.596 673.168 262.662 666.22 245.196 659.272 227.729 648.85 213.996 634.954 203.996 621.058 193.996 603.823 188.996 583.248 188.996ZM583.042 169.796C607.575 169.796 628.508 175.462 645.842 186.796 663.175 198.129 676.375 213.929 685.442 234.196 694.508 254.462 699.042 277.929 699.042 304.596 699.042 334.462 693.575 359.396 682.642 379.396 671.708 399.396 657.242 414.129 639.242 423.596 621.242 433.062 601.575 437.796 580.242 437.796 555.708 437.796 534.775 432.129 517.442 420.796 500.108 409.462 486.908 393.662 477.842 373.396 468.775 353.129 464.242 329.662 464.242 302.996 464.242 273.129 469.775 248.262 480.842 228.396 491.908 208.529 506.442 193.796 524.442 184.196 542.442 174.596 561.975 169.796 583.042 169.796Z" stroke="#FFFFFF" stroke-linejoin="round" stroke-miterlimit="10" fill="url(#fill0)" fill-rule="evenodd"/><text fill="#000000" fill-opacity="0" font-family="Arial,Arial_MSFontService,sans-serif" font-size="268" x="464.242" y="404.296">O</text><path d="M694.898 253.326C674.319 253.326 656.747 258.126 642.183 267.726 627.618 277.326 616.662 290.726 609.314 307.926 601.966 325.126 598.292 344.792 598.292 366.926 598.292 389.059 601.766 408.926 608.714 426.526 615.662 444.126 626.151 457.926 640.18 467.926 654.209 477.926 671.513 482.926 692.092 482.926 712.667 482.926 730.17 478.059 744.602 468.326 759.033 458.592 769.922 445.192 777.27 428.126 784.618 411.059 788.292 391.459 788.292 369.326 788.292 346.926 784.818 326.992 777.87 309.526 770.922 292.059 760.501 278.326 746.605 268.326 732.709 258.326 715.474 253.326 694.898 253.326ZM694.692 234.126C719.226 234.126 740.159 239.792 757.492 251.126 774.826 262.459 788.026 278.259 797.092 298.526 806.159 318.792 810.692 342.259 810.692 368.926 810.692 398.792 805.226 423.726 794.292 443.726 783.359 463.726 768.892 478.459 750.892 487.926 732.892 497.392 713.226 502.126 691.892 502.126 667.359 502.126 646.426 496.459 629.092 485.126 611.759 473.792 598.559 457.992 589.492 437.726 580.426 417.459 575.892 393.992 575.892 367.326 575.892 337.459 581.426 312.592 592.492 292.726 603.559 272.859 618.092 258.126 636.092 248.526 654.092 238.926 673.626 234.126 694.692 234.126Z" stroke="#FFFFFF" stroke-linejoin="round" stroke-miterlimit="10" fill="url(#fill1)" fill-rule="evenodd"/><text fill="#000000" fill-opacity="0" font-family="Arial,Arial_MSFontService,sans-serif" font-size="268" x="575.892" y="468.626">O</text></g></svg>